<?xml version="1.0" standalone="no"?>
<!DOCTYPE svg PUBLIC "-//W3C//DTD SVG 20010904//EN"
 "http://www.w3.org/TR/2001/REC-SVG-20010904/DTD/svg10.dtd">
<svg version="1.0" xmlns="http://www.w3.org/2000/svg"
 width="300.000000pt" height="300.000000pt" viewBox="0 0 300.000000 300.000000"
 preserveAspectRatio="xMidYMid meet">
<metadata>
Created by potrace 1.10, written by Peter Selinger 2001-2011
</metadata>
<g transform="translate(0.000000,300.000000) scale(0.100000,-0.100000)"
fill="#000000" stroke="none">
<path d="M985 2516 c-151 -36 -254 -92 -355 -195 -85 -87 -131 -158 -166 -260
-87 -250 -32 -514 149 -707 131 -140 289 -213 478 -222 137 -6 229 14 352 76
155 77 285 225 342 389 129 371 -75 779 -450 899 -100 32 -259 41 -350 20z
m284 -91 c146 -35 302 -149 379 -278 62 -104 85 -188 86 -312 0 -125 -15 -191
-70 -295 -103 -196 -309 -321 -534 -321 -116 -1 -170 12 -279 63 -250 119
-391 421 -322 690 58 227 229 399 448 452 77 19 213 19 292 1z"/>
<path d="M1092 2328 c-16 -16 -16 -90 0 -106 18 -18 56 -14 68 7 14 27 13 84
-2 99 -7 7 -21 12 -33 12 -12 0 -26 -5 -33 -12z"/>
<path d="M1310 2075 c-125 -125 -126 -125 -157 -114 -45 15 -94 -3 -134 -48
-29 -34 -31 -40 -27 -94 l4 -58 -53 -53 c-54 -53 -63 -74 -41 -96 24 -24 54
-12 107 42 44 44 58 53 72 45 42 -22 103 -4 149 46 21 23 25 36 25 91 l1 64
124 125 c118 118 123 125 112 149 -22 49 -49 34 -182 -99z m-88 -162 c-5 -10
-11 -24 -13 -31 -3 -10 -10 -8 -23 7 -18 20 -18 21 5 30 35 14 41 13 31 -6z
m-56 -58 c15 -23 15 -27 0 -50 -19 -29 -51 -32 -78 -8 -22 20 -23 32 -2 61 21
30 59 29 80 -3z m-86 -104 c0 -4 -13 -12 -30 -18 -16 -6 -30 -10 -30 -9 0 2 5
17 11 35 11 31 12 31 30 15 11 -9 19 -20 19 -23z"/>
<path d="M622 1858 c-43 -43 38 -100 97 -68 25 13 33 37 21 61 -8 15 -22 19
-58 19 -27 0 -53 -5 -60 -12z"/>
<path d="M1508 1844 c-11 -23 -10 -29 11 -45 56 -46 158 10 109 59 -7 7 -34
12 -60 12 -43 0 -50 -3 -60 -26z"/>
<path d="M1092 1438 c-7 -7 -12 -31 -12 -54 0 -84 81 -93 88 -11 2 20 -2 45
-8 57 -12 22 -49 27 -68 8z"/>
<path d="M1948 1960 c-21 -13 -24 -50 -6 -68 8 -8 60 -12 168 -12 l156 0 -152
-567 -152 -568 -335 -1 -335 -2 -4 43 c-19 164 -244 197 -384 57 -23 -23 -47
-55 -54 -72 l-12 -30 -100 0 c-88 0 -99 2 -94 16 3 9 25 86 48 171 45 167 44
185 -5 191 -34 4 -35 2 -92 -214 -62 -236 -58 -244 119 -244 106 0 106 0 106
-24 0 -61 40 -117 105 -147 84 -39 184 -16 269 62 29 27 59 62 66 79 l12 30
503 0 502 0 5 -44 c6 -50 35 -94 81 -122 47 -28 157 -26 215 4 58 31 116 85
136 126 13 28 22 34 56 39 49 6 106 48 125 90 25 55 97 340 98 385 0 61 -14
80 -103 142 l-80 55 0 234 0 233 -34 34 -34 34 -196 0 -196 0 0 28 c0 17 -9
37 -21 48 -19 17 -40 19 -193 22 -107 1 -178 -2 -188 -8z m360 -62 c7 -13 19
-32 27 -44 14 -19 13 -22 -16 -43 l-32 -24 7 45 c5 34 3 48 -9 58 -19 15 -20
30 -2 30 8 0 19 -10 25 -22z m407 -118 c3 -6 8 -30 10 -54 l3 -44 -132 -4
c-119 -3 -134 -5 -161 -26 -43 -34 -56 -57 -81 -146 -38 -132 -29 -193 33
-225 13 -7 87 -11 195 -11 l173 0 78 -56 c93 -68 102 -94 32 -94 -39 0 -47 -4
-57 -25 -10 -21 -9 -29 5 -43 9 -9 29 -17 45 -18 17 -1 26 -6 23 -15 -61 -234
-66 -246 -102 -265 -28 -14 -29 -14 -29 10 0 59 -48 127 -107 152 -105 45
-262 -18 -329 -132 l-26 -44 -119 1 c-119 0 -120 0 -113 22 4 12 21 76 39 142
l32 120 274 5 c151 3 280 9 287 13 15 10 16 49 0 65 -9 9 -84 12 -276 12 -248
0 -264 1 -257 18 6 15 91 328 155 570 l22 82 189 0 c115 0 190 -4 194 -10z
m55 -140 c0 -45 -8 -49 -35 -20 -17 19 -17 21 0 40 27 29 35 25 35 -20z m-42
-161 l-3 -121 -150 1 c-82 1 -154 6 -158 10 -4 4 3 48 17 97 35 127 46 134
187 134 l110 0 -3 -121z m56 -156 l16 -32 -33 11 c-43 15 -43 15 -22 38 10 11
19 19 20 18 2 -2 10 -17 19 -35z m170 -230 c-23 -64 -37 -75 -54 -42 -11 19
-9 25 19 46 21 16 31 33 31 51 0 20 3 23 12 14 9 -9 7 -25 -8 -69z m-804 -10
c0 -7 -5 -13 -12 -13 -6 0 -20 -7 -30 -17 -17 -15 -18 -15 -18 5 0 11 5 33 10
48 10 26 11 26 30 9 11 -10 20 -24 20 -32z m-979 -256 c76 -48 28 -191 -83
-248 -54 -28 -123 -25 -153 6 -33 32 -36 94 -9 146 20 39 90 96 132 107 40 11
86 6 113 -11z m1434 9 c125 -53 27 -261 -130 -274 -50 -4 -57 -2 -85 26 -37
38 -39 71 -5 139 26 52 78 97 131 113 42 12 51 12 89 -4z m-573 -103 c27 -25
22 -33 -22 -33 -44 0 -48 5 -23 32 20 22 22 22 45 1z m705 -5 l21 -23 -35 -18
-36 -18 7 23 c3 13 6 31 6 41 0 23 12 22 37 -5z m-1456 -4 c11 -14 9 -19 -11
-35 -34 -26 -42 -24 -34 9 12 48 22 54 45 26z m-407 -21 c-10 -43 -14 -46 -36
-27 -19 18 -19 18 4 36 32 25 39 22 32 -9z m1456 5 c0 -13 -4 -29 -9 -37 -8
-12 -12 -12 -25 -2 -22 19 -20 36 7 49 12 6 23 11 25 11 1 1 2 -9 2 -21z"/>
<path d="M1032 734 c-37 -26 -23 -74 23 -74 42 0 59 44 29 74 -19 20 -24 20
-52 0z"/>
<path d="M2488 739 c-21 -12 -24 -49 -6 -67 21 -21 57 -14 70 14 11 23 10 29
-11 45 -27 22 -30 22 -53 8z"/>
<path d="M8 1234 c-11 -23 -10 -29 11 -45 21 -17 43 -19 261 -19 218 0 240 2
261 19 21 16 22 22 11 45 l-12 26 -260 0 -260 0 -12 -26z"/>
<path d="M152 1058 c-6 -6 -12 -20 -12 -29 0 -35 23 -40 190 -37 142 3 164 5
174 21 8 12 8 22 0 35 -10 15 -32 17 -175 20 -120 2 -168 -1 -177 -10z"/>
<path d="M297 872 c-41 -45 -13 -72 73 -72 71 0 90 10 90 47 0 30 -28 43 -93
43 -40 0 -58 -5 -70 -18z"/>
</g>
</svg>
